<svg xmlns="http://www.w3.org/2000/svg" viewBox="0 0 320 180" role="img" aria-labelledby="title">
  <title>Skills for All</title>
  <defs>
    <linearGradient id="g" x1="0%" y1="0%" x2="100%" y2="100%">
      <stop offset="0%" stop-color="#00a2ff"/>
      <stop offset="100%" stop-color="#0047ff"/>
    </linearGradient>
  </defs>
  <rect width="320" height="180" rx="24" fill="url(#g)"/>
  <path fill="#ffffff" d="M81 116c10.8 0 17.8-5.8 17.8-14.2 0-8.3-6.1-11.9-15.2-14.4-6.7-1.9-9.2-3.2-9.2-6 0-2.2 2.1-3.8 5.6-3.8 3.6 0 7.5 1.3 11.5 3.7l5.6-10c-4.5-3-10.5-4.8-16.7-4.8-10.4 0-17.1 5.6-17.1 13.6 0 8.8 7 12.3 15.7 14.6 6.3 1.7 8.7 3.1 8.7 6 0 2.8-2.3 4.4-6.5 4.4-4.7 0-9.6-1.7-13.8-4.8l-6.2 9.7c5.5 4.1 12.7 6 18.9 6zm45.2.1c11.4 0 19.1-6.4 19.1-16.3 0-7.6-4-12.4-12.8-14.7l-5.8-1.5c-3.6-.9-5.2-2-5.2-4 0-2.5 2.3-4 6-4 4.1 0 8.3 1.5 12 4.2l6-9.8c-5-3.7-11.5-5.7-18.4-5.7-11.2 0-18.6 6-18.6 15.6 0 7.9 4.5 12.8 13.2 15l5.8 1.5c3.5.9 5 2 5 4.1 0 2.5-2.2 4.2-6.6 4.2-4.7 0-9.8-1.8-14.1-5l-6.2 9.9c5.6 4.1 12.9 6.3 20.6 6.3zm43.3-.6h15.1V55.5H169zm53.6.6c10.8 0 17.8-5.8 17.8-14.2 0-8.3-6.1-11.9-15.2-14.4-6.7-1.9-9.2-3.2-9.2-6 0-2.2 2.1-3.8 5.6-3.8 3.6 0 7.5 1.3 11.5 3.7l5.6-10c-4.5-3-10.5-4.8-16.7-4.8-10.4 0-17.1 5.6-17.1 13.6 0 8.8 7 12.3 15.7 14.6 6.3 1.7 8.7 3.1 8.7 6 0 2.8-2.3 4.4-6.5 4.4-4.7 0-9.6-1.7-13.8-4.8l-6.2 9.7c5.5 4.1 12.7 6 18.9 6z"/>
  <circle cx="268" cy="90" r="36" fill="#ffffff" opacity=".25"/>
  <path fill="#ffffff" d="M260 68h16l12 22-12 22h-16l-12-22z"/>
</svg>
