<svg width="64" height="64" viewBox="0 0 64 64" fill="none" xmlns="http://www.w3.org/2000/svg">
  <rect width="64" height="64" rx="12" fill="#1F0F30"/>
  <circle cx="26" cy="22" r="8" fill="#F97316"/>
  <circle cx="38" cy="22" r="8" fill="#EF4444"/>
  <circle cx="26" cy="32" r="8" fill="#22D3EE"/>
  <path d="M38 24C42.4183 24 46 27.5817 46 32C46 36.4183 42.4183 40 38 40C33.5817 40 30 36.4183 30 32C30 27.5817 33.5817 24 38 24Z" fill="#A855F7"/>
  <path d="M26 40C30.4183 40 34 43.5817 34 48C34 52.4183 30.4183 56 26 56C21.5817 56 18 52.4183 18 48C18 43.5817 21.5817 40 26 40Z" fill="#10B981"/>
</svg>
