<svg xmlns="http://www.w3.org/2000/svg" viewBox="0 0 64 64" role="img" aria-labelledby="title">
  <title>Flask</title>
  <rect width="64" height="64" rx="12" fill="#1a1a1a"/>
  <path fill="#f4f4f4" d="M25.2 10h13.6v4.8L32 26.4c0 6.8-6.2 10-6.2 15.6 0 4.9 4 12 6.2 12 2.3 0 6.2-7.1 6.2-12 0-5.7-6.2-8.8-6.2-15.6L38.8 14V8.8H25.2z"/>
  <path fill="#d0d0d0" d="M32 54.8c-5 0-10.2-8-10.2-13.6 0-5.5 5-9 5-13.6 0-1.4-.5-2.8-1.4-4.4l3.5-2c1.1 1.9 1.9 4 1.9 6.4 0 5.4-5 8.6-5 13.6 0 3.4 4 8.8 6.2 8.8s6.2-5.4 6.2-8.8c0-5-5-8.2-5-13.6 0-2.4.8-4.5 1.9-6.4l3.5 2c-.9 1.6-1.4 3-1.4 4.4 0 4.6 5 8.1 5 13.6 0 5.6-5.2 13.6-10.2 13.6z" opacity=".7"/>
</svg>
