<svg xmlns="http://www.w3.org/2000/svg" viewBox="0 0 64 64" role="img" aria-labelledby="title">
  <title>Java</title>
  <rect width="64" height="64" rx="8" fill="#f5f5f5"/>
  <path fill="#d83b01" d="M31.7 14c4.9 2.7 9.2 6.3 7 10.3-1.5 2.6-4.6 3.8-4.6 3.8s.6-1.3-.4-2.8c-1.4-2.1-5.7-4.3-2-11.3z"/>
  <path fill="#0076c0" d="M42.2 33.8c.6.4.9 1 .7 1.6-.6 1.9-4.9 3.5-10.6 3.5s-10-1.6-10.6-3.5c-.2-.6.1-1.2.7-1.6 2.6 1.7 6.5 2.5 9.9 2.5s7.3-.8 9.9-2.5zm-1.4 5.8c.7.4 1.1.9.9 1.5-.6 2.1-5.6 3.8-12.1 3.8s-11.5-1.7-12.1-3.8c-.2-.6.3-1.1.9-1.5 2.9 1.9 7.2 2.8 11.2 2.8s8.3-.9 11.2-2.8z"/>
  <path fill="#0076c0" d="M22.7 28.9c1.7 1 4.9 1.6 8.4 1.6s6.7-.6 8.4-1.6c.5-.3.7-.7.6-1.1-.3-1.5-3.6-2.4-9-2.4s-8.7.9-9 2.4c-.1.4.1.8.6 1.1z"/>
</svg>
