<svg xmlns="http://www.w3.org/2000/svg" viewBox="0 0 64 64" role="img" aria-labelledby="title">
  <title>JavaScript</title>
  <rect width="64" height="64" rx="8" fill="#f7df1e"/>
  <path fill="#1f1f1f" d="M36.4 45.8c1.3 2.1 2.9 3 5 3 2.2 0 3.6-1.1 3.6-2.6 0-1.8-1.4-2.4-3.8-3.4l-1.3-.6c-3.7-1.6-6.2-3.6-6.2-7.9 0-4 3.1-7.1 8-7.1 3.5 0 6 1.2 7.8 4.3l-4.3 2.7c-.9-1.6-1.9-2.2-3.5-2.2-1.6 0-2.6 1-2.6 2.2 0 1.6 1 2.2 3.4 3.2l1.3.6c4.4 1.9 6.9 3.8 6.9 8.2 0 4.7-3.7 7.3-8.7 7.3-4.9 0-8.1-2.3-9.6-5.3zm-16.8.4c1 .8 2.8 1.4 4.5 1.4 2 0 3.1-.9 3.1-2.2 0-1.5-1.2-2.1-3.3-3l-1.1-.4c-3-1.3-5-3-5-6.6 0-3.9 3.1-6.8 7.8-6.8 2.6 0 4.8.7 6.3 2l-2.5 3.8c-1.2-.9-2.4-1.3-3.8-1.3-1.6 0-2.6.9-2.6 2.1 0 1.4 1 2 3.2 2.9l1.1.4c3.6 1.5 5.6 3.2 5.6 6.9 0 4-3.2 6.9-8.3 6.9-3.3 0-6-1-7.7-2.4z"/>
</svg>
