<svg xmlns="http://www.w3.org/2000/svg" viewBox="0 0 64 64" role="img" aria-labelledby="title">
  <title>Python</title>
  <rect width="64" height="64" rx="12" fill="#2b5b84"/>
  <path fill="#ffd845" d="M34 12c-1.8 0-3.4 1.5-3.4 3.4v5.6h12.1a4.3 4.3 0 0 1 4.3 4.3v10.3c0 2.4-2 4.4-4.4 4.4h-8.6a4.3 4.3 0 0 1-4.3-4.3V27H22c-2.3 0-4.2-1.8-4.3-4.1-.2-4.8.6-8.7 3-11.1 2.7-2.7 7.1-3.8 13.3-3.8z"/>
  <path fill="#4b8bbe" d="M30 52c1.8 0 3.4-1.5 3.4-3.4V43H21.3a4.3 4.3 0 0 1-4.3-4.3V28.4c0-2.4 2-4.4 4.4-4.4h8.6a4.3 4.3 0 0 1 4.3 4.3V37h7.8c2.3 0 4.2 1.8 4.3 4.1.2 4.8-.6 8.7-3 11.1-2.7 2.7-7.1 3.8-13.3 3.8z"/>
  <circle cx="36.8" cy="17.8" r="1.8" fill="#2b5b84"/>
  <circle cx="27.2" cy="46.2" r="1.8" fill="#ffd845"/>
</svg>
