<svg xmlns="http://www.w3.org/2000/svg" viewBox="0 0 64 64" role="img" aria-labelledby="title">
  <title>Spring Boot</title>
  <rect width="64" height="64" rx="12" fill="#6db33f"/>
  <path fill="#ffffff" d="M32 16c-8.8 0-16 6.8-16 15.7 0 6.6 3.9 12 9.7 14.4 0 0 .5.2.5-.4v-3.2c-3.8.8-4.6-1.8-4.6-1.8-.7-1.7-1.8-2.2-1.8-2.2-1.4-.9.1-.9.1-.9 1.5.1 2.3 1.5 2.3 1.5 1.4 2.3 3.6 1.6 4.5 1.2.1-1 .5-1.6.9-1.9-3-.3-6.1-1.5-6.1-6.9 0-1.5.6-2.9 1.6-3.9-.2-.3-.7-1.7.1-3.6 0 0 1.2-.4 3.9 1.5a13.8 13.8 0 0 1 7.2 0c2.7-1.9 3.9-1.5 3.9-1.5.8 1.9.3 3.3.1 3.6 1 1 1.6 2.3 1.6 3.9 0 5.4-3.1 6.6-6.1 6.9.5.4 1 1.2 1 2.5v3.7c0 .5.4.6.5.4 5.8-2.4 9.7-7.8 9.7-14.4C48 22.8 40.8 16 32 16z"/>
</svg>
