<svg xmlns="http://www.w3.org/2000/svg" width="820" height="240" viewBox="0 0 820 240">
  <style>
    .box{fill:#0b1220;stroke:#3b82f6;stroke-width:2;rx:8}
    .text{fill:#d1d5db;font:14px sans-serif}
    .title{fill:#fff;font:600 14px sans-serif}
    .arrow{stroke:#94a3b8;stroke-width:2;marker-end:url(#a)}
  </style>
  <defs>
    <marker id="a" markerWidth="10" markerHeight="10" refX="9" refY="3" orient="auto" markerUnits="strokeWidth">
      <path d="M0,0 L0,6 L9,3 z" fill="#94a3b8" />
    </marker>
  </defs>
  <rect x="20" y="80" width="150" height="80" class="box"/>
  <text x="95" y="105" text-anchor="middle" class="title">Sources</text>
  <text x="95" y="125" text-anchor="middle" class="text">Factures / Docs</text>

  <rect x="200" y="80" width="180" height="80" class="box"/>
  <text x="290" y="105" text-anchor="middle" class="title">Extraction</text>
  <text x="290" y="125" text-anchor="middle" class="text">Spring Batch</text>

  <rect x="410" y="40" width="180" height="80" class="box"/>
  <text x="500" y="65" text-anchor="middle" class="title">Validation UI</text>
  <text x="500" y="85" text-anchor="middle" class="text">Vaadin</text>

  <rect x="410" y="140" width="180" height="80" class="box"/>
  <text x="500" y="165" text-anchor="middle" class="title">GED</text>
  <text x="500" y="185" text-anchor="middle" class="text">Mise à jour</text>

  <rect x="620" y="80" width="180" height="80" class="box"/>
  <text x="710" y="105" text-anchor="middle" class="title">Reporting</text>
  <text x="710" y="125" text-anchor="middle" class="text">Power BI</text>

  <path d="M170 120 H200" class="arrow"/>
  <path d="M380 120 H410" class="arrow"/>
  <path d="M500 120 V120" class="arrow"/>
  <path d="M590 120 H620" class="arrow"/>
  <path d="M500 120 L500 140" class="arrow"/>
</svg>
